<mxfile host="app.diagrams.net" modified="2024-03-24T13:03:26.283Z" agent="Mozilla/5.0 (X11; Linux x86_64) AppleWebKit/537.36 (KHTML, like Gecko) Chrome/107.0.0.0 Safari/537.36" etag="hFFiWIFwkqPi06IU81QG" version="24.1.0" type="device">
  <diagram id="q5AMSSlMtCLBKaBylwJ7" name="Страница 1">
    <mxGraphModel dx="1185" dy="682" grid="1" gridSize="10" guides="1" tooltips="1" connect="1" arrows="1" fold="1" page="1" pageScale="1" pageWidth="827" pageHeight="1169" math="0" shadow="0">
      <root>
        <mxCell id="0" />
        <mxCell id="1" parent="0" />
        <mxCell id="Ya6bi7_PZgkg1N7OLImA-1" value="" style="whiteSpace=wrap;html=1;aspect=fixed;" parent="1" vertex="1">
          <mxGeometry x="240" y="240" width="80" height="80" as="geometry" />
        </mxCell>
        <mxCell id="Ya6bi7_PZgkg1N7OLImA-2" value="Gateway" style="text;html=1;align=center;verticalAlign=middle;resizable=0;points=[];autosize=1;strokeColor=none;fillColor=none;" parent="1" vertex="1">
          <mxGeometry x="245" y="265" width="70" height="30" as="geometry" />
        </mxCell>
        <mxCell id="Ya6bi7_PZgkg1N7OLImA-4" value="" style="endArrow=classic;startArrow=classic;html=1;rounded=0;" parent="1" edge="1">
          <mxGeometry width="50" height="50" relative="1" as="geometry">
            <mxPoint x="130" y="279.71" as="sourcePoint" />
            <mxPoint x="220" y="279.71" as="targetPoint" />
          </mxGeometry>
        </mxCell>
        <mxCell id="Ya6bi7_PZgkg1N7OLImA-6" value="" style="endArrow=none;dashed=1;html=1;rounded=0;" parent="1" edge="1">
          <mxGeometry width="50" height="50" relative="1" as="geometry">
            <mxPoint x="230" y="10" as="sourcePoint" />
            <mxPoint x="230" y="520" as="targetPoint" />
          </mxGeometry>
        </mxCell>
        <mxCell id="Ya6bi7_PZgkg1N7OLImA-10" value="" style="ellipse;whiteSpace=wrap;html=1;" parent="1" vertex="1">
          <mxGeometry y="240" width="120" height="80" as="geometry" />
        </mxCell>
        <mxCell id="Ya6bi7_PZgkg1N7OLImA-9" value="Client" style="text;html=1;align=center;verticalAlign=middle;resizable=0;points=[];autosize=1;strokeColor=none;fillColor=none;" parent="1" vertex="1">
          <mxGeometry x="35" y="265" width="50" height="30" as="geometry" />
        </mxCell>
        <mxCell id="Ya6bi7_PZgkg1N7OLImA-11" value="" style="whiteSpace=wrap;html=1;aspect=fixed;" parent="1" vertex="1">
          <mxGeometry x="410" y="70" width="60" height="60" as="geometry" />
        </mxCell>
        <mxCell id="Ya6bi7_PZgkg1N7OLImA-12" value="" style="whiteSpace=wrap;html=1;aspect=fixed;" parent="1" vertex="1">
          <mxGeometry x="410" y="150" width="60" height="60" as="geometry" />
        </mxCell>
        <mxCell id="Ya6bi7_PZgkg1N7OLImA-13" value="" style="rhombus;whiteSpace=wrap;html=1;" parent="1" vertex="1">
          <mxGeometry x="506" y="70" width="60" height="60" as="geometry" />
        </mxCell>
        <mxCell id="Ya6bi7_PZgkg1N7OLImA-14" value="" style="rhombus;whiteSpace=wrap;html=1;" parent="1" vertex="1">
          <mxGeometry x="506" y="150" width="60" height="60" as="geometry" />
        </mxCell>
        <mxCell id="Ya6bi7_PZgkg1N7OLImA-15" value="" style="shape=parallelogram;perimeter=parallelogramPerimeter;whiteSpace=wrap;html=1;fixedSize=1;" parent="1" vertex="1">
          <mxGeometry x="586" y="80" width="70" height="40" as="geometry" />
        </mxCell>
        <mxCell id="Ya6bi7_PZgkg1N7OLImA-16" value="" style="shape=parallelogram;perimeter=parallelogramPerimeter;whiteSpace=wrap;html=1;fixedSize=1;" parent="1" vertex="1">
          <mxGeometry x="586" y="160" width="70" height="40" as="geometry" />
        </mxCell>
        <mxCell id="Ya6bi7_PZgkg1N7OLImA-43" value="" style="edgeStyle=orthogonalEdgeStyle;rounded=0;orthogonalLoop=1;jettySize=auto;html=1;" parent="1" source="Ya6bi7_PZgkg1N7OLImA-22" edge="1">
          <mxGeometry relative="1" as="geometry">
            <mxPoint x="500" y="100" as="targetPoint" />
          </mxGeometry>
        </mxCell>
        <mxCell id="Ya6bi7_PZgkg1N7OLImA-22" value="FsWriter" style="text;html=1;align=center;verticalAlign=middle;resizable=0;points=[];autosize=1;strokeColor=none;fillColor=none;" parent="1" vertex="1">
          <mxGeometry x="405" y="85" width="70" height="30" as="geometry" />
        </mxCell>
        <mxCell id="Ya6bi7_PZgkg1N7OLImA-23" value="FsReader" style="text;html=1;align=center;verticalAlign=middle;resizable=0;points=[];autosize=1;strokeColor=none;fillColor=none;" parent="1" vertex="1">
          <mxGeometry x="400" y="165" width="80" height="30" as="geometry" />
        </mxCell>
        <mxCell id="Ya6bi7_PZgkg1N7OLImA-24" value="" style="endArrow=none;dashed=1;html=1;dashPattern=1 3;strokeWidth=2;rounded=0;opacity=40;" parent="1" edge="1">
          <mxGeometry width="50" height="50" relative="1" as="geometry">
            <mxPoint x="400" y="40" as="sourcePoint" />
            <mxPoint x="400" y="220" as="targetPoint" />
          </mxGeometry>
        </mxCell>
        <mxCell id="Ya6bi7_PZgkg1N7OLImA-25" value="" style="endArrow=none;dashed=1;html=1;dashPattern=1 3;strokeWidth=2;rounded=0;opacity=40;" parent="1" edge="1">
          <mxGeometry width="50" height="50" relative="1" as="geometry">
            <mxPoint x="680" y="40" as="sourcePoint" />
            <mxPoint x="680" y="220" as="targetPoint" />
          </mxGeometry>
        </mxCell>
        <mxCell id="Ya6bi7_PZgkg1N7OLImA-26" value="" style="endArrow=none;dashed=1;html=1;dashPattern=1 3;strokeWidth=2;rounded=0;opacity=40;" parent="1" edge="1">
          <mxGeometry width="50" height="50" relative="1" as="geometry">
            <mxPoint x="680" y="220" as="sourcePoint" />
            <mxPoint x="400" y="220" as="targetPoint" />
          </mxGeometry>
        </mxCell>
        <mxCell id="Ya6bi7_PZgkg1N7OLImA-27" value="" style="endArrow=none;dashed=1;html=1;dashPattern=1 3;strokeWidth=2;rounded=0;opacity=40;" parent="1" edge="1">
          <mxGeometry width="50" height="50" relative="1" as="geometry">
            <mxPoint x="680" y="40" as="sourcePoint" />
            <mxPoint x="400" y="40" as="targetPoint" />
          </mxGeometry>
        </mxCell>
        <mxCell id="Ya6bi7_PZgkg1N7OLImA-28" value="FsManager" style="text;html=1;align=center;verticalAlign=middle;resizable=0;points=[];autosize=1;strokeColor=none;fillColor=none;fontStyle=4" parent="1" vertex="1">
          <mxGeometry x="600" y="40" width="80" height="30" as="geometry" />
        </mxCell>
        <mxCell id="Ya6bi7_PZgkg1N7OLImA-29" value="" style="endArrow=classic;html=1;rounded=0;exitX=1;exitY=0;exitDx=0;exitDy=0;entryX=-0.06;entryY=0.962;entryDx=0;entryDy=0;entryPerimeter=0;" parent="1" source="Ya6bi7_PZgkg1N7OLImA-1" target="Ya6bi7_PZgkg1N7OLImA-11" edge="1">
          <mxGeometry width="50" height="50" relative="1" as="geometry">
            <mxPoint x="320" y="310" as="sourcePoint" />
            <mxPoint x="370" y="260" as="targetPoint" />
          </mxGeometry>
        </mxCell>
        <mxCell id="Ya6bi7_PZgkg1N7OLImA-30" value="" style="endArrow=classic;html=1;rounded=0;exitX=0;exitY=1;exitDx=0;exitDy=0;" parent="1" source="Ya6bi7_PZgkg1N7OLImA-12" edge="1">
          <mxGeometry width="50" height="50" relative="1" as="geometry">
            <mxPoint x="320" y="310" as="sourcePoint" />
            <mxPoint x="320" y="240" as="targetPoint" />
          </mxGeometry>
        </mxCell>
        <mxCell id="Ya6bi7_PZgkg1N7OLImA-44" value="" style="edgeStyle=orthogonalEdgeStyle;rounded=0;orthogonalLoop=1;jettySize=auto;html=1;" parent="1" source="Ya6bi7_PZgkg1N7OLImA-33" target="Ya6bi7_PZgkg1N7OLImA-35" edge="1">
          <mxGeometry relative="1" as="geometry" />
        </mxCell>
        <mxCell id="Ya6bi7_PZgkg1N7OLImA-33" value="&lt;font style=&quot;font-size: 9px;&quot;&gt;VfsBackend&lt;/font&gt;" style="text;html=1;align=center;verticalAlign=middle;resizable=0;points=[];autosize=1;strokeColor=none;fillColor=none;" parent="1" vertex="1">
          <mxGeometry x="501" y="85" width="70" height="30" as="geometry" />
        </mxCell>
        <mxCell id="Ya6bi7_PZgkg1N7OLImA-39" value="" style="edgeStyle=orthogonalEdgeStyle;rounded=0;orthogonalLoop=1;jettySize=auto;html=1;" parent="1" source="Ya6bi7_PZgkg1N7OLImA-34" target="Ya6bi7_PZgkg1N7OLImA-23" edge="1">
          <mxGeometry relative="1" as="geometry" />
        </mxCell>
        <mxCell id="Ya6bi7_PZgkg1N7OLImA-34" value="&lt;font style=&quot;font-size: 9px;&quot;&gt;VfsBackend&lt;/font&gt;" style="text;html=1;align=center;verticalAlign=middle;resizable=0;points=[];autosize=1;strokeColor=none;fillColor=none;" parent="1" vertex="1">
          <mxGeometry x="501" y="165" width="70" height="30" as="geometry" />
        </mxCell>
        <mxCell id="Ya6bi7_PZgkg1N7OLImA-35" value="&lt;font style=&quot;font-size: 9px;&quot;&gt;Disk&lt;/font&gt;&lt;font style=&quot;font-size: 8px;&quot;&gt;&amp;nbsp;&lt;/font&gt;&lt;div&gt;&lt;font style=&quot;font-size: 9px;&quot;&gt;Partition&lt;/font&gt;&lt;/div&gt;" style="text;html=1;align=center;verticalAlign=middle;resizable=0;points=[];autosize=1;strokeColor=none;fillColor=none;" parent="1" vertex="1">
          <mxGeometry x="591" y="80" width="60" height="40" as="geometry" />
        </mxCell>
        <mxCell id="Ya6bi7_PZgkg1N7OLImA-38" value="" style="edgeStyle=orthogonalEdgeStyle;rounded=0;orthogonalLoop=1;jettySize=auto;html=1;" parent="1" source="Ya6bi7_PZgkg1N7OLImA-36" target="Ya6bi7_PZgkg1N7OLImA-34" edge="1">
          <mxGeometry relative="1" as="geometry" />
        </mxCell>
        <mxCell id="Ya6bi7_PZgkg1N7OLImA-36" value="&lt;font style=&quot;font-size: 9px;&quot;&gt;Disk&lt;/font&gt;&lt;font style=&quot;font-size: 8px;&quot;&gt;&amp;nbsp;&lt;/font&gt;&lt;div&gt;&lt;font style=&quot;font-size: 9px;&quot;&gt;Partition&lt;/font&gt;&lt;/div&gt;" style="text;html=1;align=center;verticalAlign=middle;resizable=0;points=[];autosize=1;strokeColor=none;fillColor=none;" parent="1" vertex="1">
          <mxGeometry x="591" y="160" width="60" height="40" as="geometry" />
        </mxCell>
        <mxCell id="Ya6bi7_PZgkg1N7OLImA-45" value="" style="whiteSpace=wrap;html=1;aspect=fixed;" parent="1" vertex="1">
          <mxGeometry x="410" y="370" width="60" height="60" as="geometry" />
        </mxCell>
        <mxCell id="Ya6bi7_PZgkg1N7OLImA-46" value="" style="whiteSpace=wrap;html=1;aspect=fixed;" parent="1" vertex="1">
          <mxGeometry x="506" y="330" width="60" height="60" as="geometry" />
        </mxCell>
        <mxCell id="Ya6bi7_PZgkg1N7OLImA-47" value="" style="whiteSpace=wrap;html=1;aspect=fixed;" parent="1" vertex="1">
          <mxGeometry x="506" y="410" width="60" height="60" as="geometry" />
        </mxCell>
        <mxCell id="Ya6bi7_PZgkg1N7OLImA-48" value="" style="rhombus;whiteSpace=wrap;html=1;" parent="1" vertex="1">
          <mxGeometry x="602" y="330" width="60" height="60" as="geometry" />
        </mxCell>
        <mxCell id="Ya6bi7_PZgkg1N7OLImA-49" value="" style="rhombus;whiteSpace=wrap;html=1;" parent="1" vertex="1">
          <mxGeometry x="602" y="410" width="60" height="60" as="geometry" />
        </mxCell>
        <mxCell id="Ya6bi7_PZgkg1N7OLImA-50" value="" style="shape=parallelogram;perimeter=parallelogramPerimeter;whiteSpace=wrap;html=1;fixedSize=1;" parent="1" vertex="1">
          <mxGeometry x="682" y="340" width="70" height="40" as="geometry" />
        </mxCell>
        <mxCell id="Ya6bi7_PZgkg1N7OLImA-51" value="" style="shape=parallelogram;perimeter=parallelogramPerimeter;whiteSpace=wrap;html=1;fixedSize=1;" parent="1" vertex="1">
          <mxGeometry x="682" y="420" width="70" height="40" as="geometry" />
        </mxCell>
        <mxCell id="Ya6bi7_PZgkg1N7OLImA-52" value="" style="edgeStyle=orthogonalEdgeStyle;rounded=0;orthogonalLoop=1;jettySize=auto;html=1;" parent="1" edge="1">
          <mxGeometry relative="1" as="geometry">
            <mxPoint x="571" y="360" as="sourcePoint" />
            <mxPoint x="596" y="360" as="targetPoint" />
          </mxGeometry>
        </mxCell>
        <mxCell id="Ya6bi7_PZgkg1N7OLImA-53" value="" style="edgeStyle=orthogonalEdgeStyle;rounded=0;orthogonalLoop=1;jettySize=auto;html=1;" parent="1" source="Ya6bi7_PZgkg1N7OLImA-54" target="Ya6bi7_PZgkg1N7OLImA-57" edge="1">
          <mxGeometry relative="1" as="geometry" />
        </mxCell>
        <mxCell id="Ya6bi7_PZgkg1N7OLImA-54" value="&lt;font style=&quot;font-size: 9px;&quot;&gt;VfsBackend&lt;/font&gt;" style="text;html=1;align=center;verticalAlign=middle;resizable=0;points=[];autosize=1;strokeColor=none;fillColor=none;" parent="1" vertex="1">
          <mxGeometry x="597" y="345" width="70" height="30" as="geometry" />
        </mxCell>
        <mxCell id="Ya6bi7_PZgkg1N7OLImA-55" value="" style="edgeStyle=orthogonalEdgeStyle;rounded=0;orthogonalLoop=1;jettySize=auto;html=1;" parent="1" source="Ya6bi7_PZgkg1N7OLImA-56" edge="1">
          <mxGeometry relative="1" as="geometry">
            <mxPoint x="576" y="440" as="targetPoint" />
          </mxGeometry>
        </mxCell>
        <mxCell id="Ya6bi7_PZgkg1N7OLImA-56" value="&lt;font style=&quot;font-size: 9px;&quot;&gt;VfsBackend&lt;/font&gt;" style="text;html=1;align=center;verticalAlign=middle;resizable=0;points=[];autosize=1;strokeColor=none;fillColor=none;" parent="1" vertex="1">
          <mxGeometry x="597" y="425" width="70" height="30" as="geometry" />
        </mxCell>
        <mxCell id="Ya6bi7_PZgkg1N7OLImA-57" value="&lt;font style=&quot;font-size: 9px;&quot;&gt;Disk&lt;/font&gt;&lt;font style=&quot;font-size: 8px;&quot;&gt;&amp;nbsp;&lt;/font&gt;&lt;div&gt;&lt;font style=&quot;font-size: 9px;&quot;&gt;Partition&lt;/font&gt;&lt;/div&gt;" style="text;html=1;align=center;verticalAlign=middle;resizable=0;points=[];autosize=1;strokeColor=none;fillColor=none;" parent="1" vertex="1">
          <mxGeometry x="687" y="340" width="60" height="40" as="geometry" />
        </mxCell>
        <mxCell id="Ya6bi7_PZgkg1N7OLImA-58" value="" style="edgeStyle=orthogonalEdgeStyle;rounded=0;orthogonalLoop=1;jettySize=auto;html=1;" parent="1" source="Ya6bi7_PZgkg1N7OLImA-59" target="Ya6bi7_PZgkg1N7OLImA-56" edge="1">
          <mxGeometry relative="1" as="geometry" />
        </mxCell>
        <mxCell id="Ya6bi7_PZgkg1N7OLImA-59" value="&lt;font style=&quot;font-size: 9px;&quot;&gt;Disk&lt;/font&gt;&lt;font style=&quot;font-size: 8px;&quot;&gt;&amp;nbsp;&lt;/font&gt;&lt;div&gt;&lt;font style=&quot;font-size: 9px;&quot;&gt;Partition&lt;/font&gt;&lt;/div&gt;" style="text;html=1;align=center;verticalAlign=middle;resizable=0;points=[];autosize=1;strokeColor=none;fillColor=none;" parent="1" vertex="1">
          <mxGeometry x="687" y="420" width="60" height="40" as="geometry" />
        </mxCell>
        <mxCell id="Ya6bi7_PZgkg1N7OLImA-60" value="" style="endArrow=classic;html=1;rounded=0;exitX=1;exitY=0;exitDx=0;exitDy=0;entryX=0;entryY=0.5;entryDx=0;entryDy=0;" parent="1" source="Ya6bi7_PZgkg1N7OLImA-45" target="Ya6bi7_PZgkg1N7OLImA-46" edge="1">
          <mxGeometry width="50" height="50" relative="1" as="geometry">
            <mxPoint x="320" y="340" as="sourcePoint" />
            <mxPoint x="370" y="290" as="targetPoint" />
          </mxGeometry>
        </mxCell>
        <mxCell id="Ya6bi7_PZgkg1N7OLImA-61" value="" style="endArrow=classic;html=1;rounded=0;exitX=1;exitY=1;exitDx=0;exitDy=0;entryX=0;entryY=0.5;entryDx=0;entryDy=0;" parent="1" source="Ya6bi7_PZgkg1N7OLImA-45" target="Ya6bi7_PZgkg1N7OLImA-47" edge="1">
          <mxGeometry width="50" height="50" relative="1" as="geometry">
            <mxPoint x="480" y="380" as="sourcePoint" />
            <mxPoint x="516" y="370" as="targetPoint" />
          </mxGeometry>
        </mxCell>
        <mxCell id="Ya6bi7_PZgkg1N7OLImA-62" value="Auth&lt;div&gt;Service&lt;/div&gt;&lt;div&gt;Proxy&lt;/div&gt;" style="text;html=1;align=center;verticalAlign=middle;resizable=0;points=[];autosize=1;strokeColor=none;fillColor=none;" parent="1" vertex="1">
          <mxGeometry x="410" y="370" width="60" height="60" as="geometry" />
        </mxCell>
        <mxCell id="Ya6bi7_PZgkg1N7OLImA-63" value="Cred&amp;nbsp;&lt;div&gt;Storage&lt;div&gt;Writer&lt;/div&gt;&lt;/div&gt;" style="text;html=1;align=center;verticalAlign=middle;resizable=0;points=[];autosize=1;strokeColor=none;fillColor=none;" parent="1" vertex="1">
          <mxGeometry x="501" y="330" width="70" height="60" as="geometry" />
        </mxCell>
        <mxCell id="Ya6bi7_PZgkg1N7OLImA-64" value="Cred&amp;nbsp;&lt;div&gt;Storage&lt;div&gt;Reader&lt;/div&gt;&lt;/div&gt;" style="text;html=1;align=center;verticalAlign=middle;resizable=0;points=[];autosize=1;strokeColor=none;fillColor=none;" parent="1" vertex="1">
          <mxGeometry x="501" y="410" width="70" height="60" as="geometry" />
        </mxCell>
        <mxCell id="Ya6bi7_PZgkg1N7OLImA-67" value="" style="endArrow=none;dashed=1;html=1;dashPattern=1 3;strokeWidth=2;rounded=0;textOpacity=0;opacity=40;" parent="1" edge="1">
          <mxGeometry width="50" height="50" relative="1" as="geometry">
            <mxPoint x="400" y="480" as="sourcePoint" />
            <mxPoint x="400" y="300" as="targetPoint" />
          </mxGeometry>
        </mxCell>
        <mxCell id="Ya6bi7_PZgkg1N7OLImA-68" value="" style="endArrow=none;dashed=1;html=1;dashPattern=1 3;strokeWidth=2;rounded=0;textOpacity=0;opacity=40;" parent="1" edge="1">
          <mxGeometry width="50" height="50" relative="1" as="geometry">
            <mxPoint x="760" y="480" as="sourcePoint" />
            <mxPoint x="760" y="300" as="targetPoint" />
          </mxGeometry>
        </mxCell>
        <mxCell id="Ya6bi7_PZgkg1N7OLImA-69" value="" style="endArrow=none;dashed=1;html=1;dashPattern=1 3;strokeWidth=2;rounded=0;textOpacity=90;fontColor=#00FFFF;opacity=40;" parent="1" edge="1">
          <mxGeometry width="50" height="50" relative="1" as="geometry">
            <mxPoint x="400" y="480" as="sourcePoint" />
            <mxPoint x="760" y="480" as="targetPoint" />
          </mxGeometry>
        </mxCell>
        <mxCell id="Ya6bi7_PZgkg1N7OLImA-70" value="" style="endArrow=none;dashed=1;html=1;dashPattern=1 3;strokeWidth=2;rounded=0;labelBackgroundColor=default;fontColor=default;opacity=40;" parent="1" edge="1">
          <mxGeometry width="50" height="50" relative="1" as="geometry">
            <mxPoint x="400" y="300" as="sourcePoint" />
            <mxPoint x="760" y="300" as="targetPoint" />
          </mxGeometry>
        </mxCell>
        <mxCell id="Ya6bi7_PZgkg1N7OLImA-71" value="Auth Service" style="text;html=1;align=center;verticalAlign=middle;resizable=0;points=[];autosize=1;strokeColor=none;fillColor=none;fontStyle=4" parent="1" vertex="1">
          <mxGeometry x="672" y="300" width="90" height="30" as="geometry" />
        </mxCell>
        <mxCell id="Ya6bi7_PZgkg1N7OLImA-72" value="" style="endArrow=classic;startArrow=classic;html=1;rounded=0;exitX=1;exitY=1;exitDx=0;exitDy=0;" parent="1" source="Ya6bi7_PZgkg1N7OLImA-1" edge="1">
          <mxGeometry width="50" height="50" relative="1" as="geometry">
            <mxPoint x="320" y="340" as="sourcePoint" />
            <mxPoint x="400" y="400" as="targetPoint" />
          </mxGeometry>
        </mxCell>
        <mxCell id="kObddMSYxXIqRNJCpM_w-1" value="" style="endArrow=none;dashed=1;html=1;rounded=0;" edge="1" parent="1">
          <mxGeometry width="50" height="50" relative="1" as="geometry">
            <mxPoint x="230" y="520" as="sourcePoint" />
            <mxPoint x="770" y="520" as="targetPoint" />
          </mxGeometry>
        </mxCell>
        <mxCell id="kObddMSYxXIqRNJCpM_w-2" value="" style="endArrow=none;dashed=1;html=1;rounded=0;" edge="1" parent="1">
          <mxGeometry width="50" height="50" relative="1" as="geometry">
            <mxPoint x="230" y="10" as="sourcePoint" />
            <mxPoint x="770" y="10" as="targetPoint" />
          </mxGeometry>
        </mxCell>
        <mxCell id="kObddMSYxXIqRNJCpM_w-3" value="" style="endArrow=none;dashed=1;html=1;rounded=0;" edge="1" parent="1">
          <mxGeometry width="50" height="50" relative="1" as="geometry">
            <mxPoint x="770" y="10" as="sourcePoint" />
            <mxPoint x="770" y="520" as="targetPoint" />
          </mxGeometry>
        </mxCell>
        <mxCell id="kObddMSYxXIqRNJCpM_w-4" value="KOSNAS" style="text;html=1;align=center;verticalAlign=middle;resizable=0;points=[];autosize=1;strokeColor=none;fillColor=none;fontStyle=4" vertex="1" parent="1">
          <mxGeometry x="700" y="10" width="70" height="30" as="geometry" />
        </mxCell>
      </root>
    </mxGraphModel>
  </diagram>
</mxfile>
